<svg width="54" height="24" viewBox="0 0 54 24" fill="none" xmlns="http://www.w3.org/2000/svg">
<path d="M20.8688 8.00623H19.275L13.9875 2.81248C13.8188 2.64373 13.5375 2.64373 13.3688 2.81248C13.2 2.98123 13.2 3.26248 13.3688 3.43123L18.0188 7.98748H5.98125L10.6313 3.43123C10.8 3.26248 10.8 2.98123 10.6313 2.81248C10.4625 2.64373 10.1813 2.64373 10.0125 2.81248L4.725 8.00623H3.13125C2.8875 8.00623 2.68125 8.21248 2.68125 8.45623V11.1187C2.68125 11.3625 2.8875 11.5687 3.13125 11.5687H3.6375L4.9125 20.9437C4.95 21.1687 5.1375 21.3187 5.34375 21.3187H18.6563C18.8813 21.3187 19.0688 21.15 19.0875 20.9437L20.3625 11.5687H20.8688C21.1125 11.5687 21.3188 11.3625 21.3188 11.1187V8.45623C21.3188 8.21248 21.1125 8.00623 20.8688 8.00623ZM18.2625 20.4375H5.7375L4.51875 11.5687H19.4813L18.2625 20.4375ZM20.4375 10.6687H19.9875H4.0125H3.5625V8.88748H20.4375V10.6687Z" fill="#6A6A6A"/>
<path d="M12 18.2063C12.2437 18.2063 12.45 18 12.45 17.7563V14.2125C12.45 13.9688 12.2437 13.7625 12 13.7625C11.7562 13.7625 11.55 13.9688 11.55 14.2125V17.7563C11.55 18.0188 11.7562 18.2063 12 18.2063ZM8.00625 17.8313C8.025 18.0563 8.23125 18.225 8.4375 18.225C8.45625 18.225 8.475 18.225 8.49375 18.225C8.7375 18.1875 8.90625 17.9813 8.8875 17.7375L8.4375 14.1938C8.4 13.95 8.175 13.7813 7.95 13.8C7.70625 13.8375 7.5375 14.0438 7.55625 14.2875L8.00625 17.8313ZM15.4875 18.2063C15.5062 18.2063 15.525 18.2063 15.5437 18.2063C15.7687 18.2063 15.9562 18.0375 15.975 17.8125L16.425 14.2688C16.4625 14.025 16.275 13.8 16.0312 13.7813C15.7875 13.7438 15.5625 13.9313 15.5437 14.175L15.0937 17.7188C15.075 17.9625 15.2437 18.1688 15.4875 18.2063Z" fill="#6A6A6A"/>
<path d="M41 19C45.4183 19 49 15.4183 49 11C49 6.58172 45.4183 3 41 3C36.5817 3 33 6.58172 33 11C33 15.4183 36.5817 19 41 19Z" stroke="#6A6A6A" stroke-linecap="round" stroke-linejoin="round"/>
<path d="M51 21L46.65 16.65" stroke="#6A6A6A" stroke-linecap="round" stroke-linejoin="round"/>
</svg>
