<svg xmlns="http://www.w3.org/2000/svg" enable-background="new 0 0 128 128" viewBox="0 0 128 128"><path d="M111.3,42.7h-8.5L74.6,15c-0.9-0.9-2.4-0.9-3.3,0c-0.9,0.9-0.9,2.4,0,3.3l24.8,24.3H31.9l24.8-24.3c0.9-0.9,0.9-2.4,0-3.3
		c-0.9-0.9-2.4-0.9-3.3,0L25.2,42.7h-8.5c-1.3,0-2.4,1.1-2.4,2.4v14.2c0,1.3,1.1,2.4,2.4,2.4h2.7l6.8,50c0.2,1.2,1.2,2,2.3,2h71
		c1.2,0,2.2-0.9,2.3-2l6.8-50h2.7c1.3,0,2.4-1.1,2.4-2.4V45.1C113.7,43.8,112.6,42.7,111.3,42.7z M97.4,109H30.6l-6.5-47.3h79.8
		L97.4,109z M109,56.9h-2.4H21.4H19v-9.5H109V56.9z"/><path d="M64 97.1c1.3 0 2.4-1.1 2.4-2.4V75.8c0-1.3-1.1-2.4-2.4-2.4s-2.4 1.1-2.4 2.4v18.9C61.6 96.1 62.7 97.1 64 97.1zM42.7 95.1c.1 1.2 1.2 2.1 2.3 2.1.1 0 .2 0 .3 0 1.3-.2 2.2-1.3 2.1-2.6l-2.4-18.9c-.2-1.3-1.4-2.2-2.6-2.1-1.3.2-2.2 1.3-2.1 2.6L42.7 95.1zM82.6 97.1c.1 0 .2 0 .3 0 1.2 0 2.2-.9 2.3-2.1l2.4-18.9c.2-1.3-.8-2.5-2.1-2.6-1.3-.2-2.5.8-2.6 2.1l-2.4 18.9C80.4 95.8 81.3 96.9 82.6 97.1z"/></svg>