<svg width="140" height="140" viewBox="0 0 140 140" fill="none" xmlns="http://www.w3.org/2000/svg">
<circle cx="70" cy="70" r="70" fill="#007EC3"/>
<g clip-path="url(#clip0_16_155)">
<path d="M73.3056 63.7647C73.441 63.6293 73.517 63.4458 73.517 63.2543C73.517 63.0629 73.441 62.8794 73.3056 62.744C73.1703 62.6087 72.9867 62.5327 72.7953 62.5327C72.6039 62.5327 72.4204 62.6087 72.285 62.744C71.5976 63.4309 70.6657 63.8168 69.6939 63.8168C68.7222 63.8168 67.7902 63.4309 67.1028 62.744C66.9675 62.6096 66.7843 62.5345 66.5936 62.5352C66.4028 62.5359 66.2202 62.6123 66.0858 62.7476C65.9514 62.883 65.8763 63.0662 65.877 63.2569C65.8776 63.4476 65.954 63.6303 66.0894 63.7647C67.0473 64.7197 68.3448 65.256 69.6975 65.256C71.0502 65.256 72.3477 64.7197 73.3056 63.7647Z" fill="white"/>
<path d="M118.098 89.1365C116.148 85.6978 112.945 83.1451 109.158 82.0108C105.37 80.8765 101.292 81.2484 97.7719 83.0487C95.7917 80.6816 93.3154 78.7786 90.5184 77.4745C87.7213 76.1704 84.6718 75.4969 81.5856 75.5018H76.2812V71.3331C79.3609 70.13 82.0567 68.1144 84.0818 65.5008C86.1069 62.8872 87.3854 59.7734 87.7812 56.4909H88.6581C89.9149 56.5041 91.1322 56.0523 92.0761 55.2225C93.02 54.3927 93.624 53.2434 93.772 51.9953C93.92 50.7472 93.6015 49.4885 92.8778 48.4609C92.1541 47.4334 91.0762 46.7095 89.8512 46.4284C92.3597 42.1159 92.295 38.63 92.295 35.3165C92.2874 31.2604 90.6742 27.3722 87.8081 24.5021C84.942 21.6319 81.0561 20.0133 77 20H63.6025C60.8457 19.9937 58.1941 21.0579 56.2066 22.9684C53.6347 23.4447 51.3115 24.8085 49.6421 26.8221C47.9727 28.8357 47.0629 31.3712 47.0712 33.9868C47.0712 38.0909 46.7909 41.7493 49.515 46.4356C48.29 46.7167 47.2121 47.4406 46.4884 48.4681C45.7647 49.4957 45.4463 50.7544 45.5943 52.0025C45.7423 53.2505 46.3462 54.3999 47.2902 55.2297C48.2341 56.0595 49.4514 56.5112 50.7081 56.4981H51.585C51.9734 59.7911 53.2549 62.9152 55.2907 65.5325C57.3265 68.1498 60.0392 70.1606 63.1353 71.3475V75.5018H58.0106C52.9614 75.4391 48.0571 77.1896 44.1888 80.4354C40.3205 83.6812 37.7448 88.2069 36.9297 93.1903L33.9325 111.159C33.901 111.35 33.9466 111.545 34.0592 111.702C34.1717 111.859 34.342 111.965 34.5327 111.996C34.7233 112.028 34.9186 111.982 35.0756 111.87C35.2327 111.757 35.3385 111.587 35.37 111.396L38.3672 93.4275C38.9766 89.7155 40.6378 86.2562 43.1539 83.4599C45.67 80.6635 48.9353 78.6475 52.5625 77.6509L48.5878 93.5784C48.5474 93.7371 48.5625 93.9049 48.6304 94.0539C48.6984 94.2029 48.8152 94.3242 48.9616 94.3978L54.1581 96.9925L51.5634 102.196C51.3047 102.714 51.1681 102.254 57.45 111.677C57.5604 111.823 57.7229 111.922 57.904 111.953C58.0852 111.984 58.2712 111.944 58.4239 111.842C58.5767 111.74 58.6845 111.583 58.7252 111.404C58.766 111.225 58.7366 111.037 58.6431 110.879L53.0369 102.462L55.7681 96.9925C55.8529 96.8218 55.8664 96.6246 55.8057 96.444C55.7451 96.2634 55.6152 96.1142 55.4447 96.0293L50.1187 93.37L54.1366 77.2915C55.7082 77.0067 57.3055 76.8887 58.9019 76.9393L64.6519 111.396C64.6674 111.491 64.7015 111.581 64.752 111.662C64.8025 111.743 64.8685 111.814 64.9462 111.87C65.024 111.925 65.112 111.965 65.2051 111.987C65.2983 112.009 65.3948 112.012 65.4892 111.996C65.5836 111.981 65.674 111.947 65.7552 111.896C65.8365 111.846 65.907 111.78 65.9627 111.702C66.0184 111.624 66.0583 111.536 66.08 111.443C66.1018 111.35 66.1049 111.253 66.0894 111.159L65.4784 107.493L67.1891 93.8372C67.5556 90.84 71.9616 90.84 72.3353 93.8372L74.0459 107.493L73.435 111.159C73.4035 111.35 73.4491 111.545 73.5617 111.702C73.6742 111.859 73.8445 111.965 74.0352 111.996C74.2258 112.028 74.4211 111.982 74.5781 111.87C74.7352 111.757 74.841 111.587 74.8725 111.396L80.6225 76.9393C82.2169 76.8836 83.8126 77.0041 85.3806 77.2987L89.3984 93.37L84.0725 96.0293C83.9032 96.1155 83.7749 96.2652 83.7157 96.4457C83.6564 96.6261 83.671 96.8227 83.7562 96.9925L86.4875 102.462L80.8741 110.879C80.8009 110.987 80.7587 111.113 80.7518 111.243C80.7449 111.374 80.7737 111.504 80.835 111.619C80.8963 111.734 80.9879 111.83 81.0999 111.898C81.2119 111.965 81.34 112 81.4706 112C82.0169 112 81.6144 112.367 87.9394 102.915C88.2484 102.448 88.2341 102.699 85.3806 96.9925L89.6931 94.8362C88.1838 107.263 101.509 116.162 112.42 110.002C115.929 107.978 118.495 104.648 119.559 100.739C120.622 96.8305 120.097 92.6597 118.098 89.1365ZM82.7859 46.3062C82.2453 45.362 81.4512 44.5879 80.4935 44.0715C79.5358 43.5552 78.4526 43.3172 77.3667 43.3845C76.2807 43.4518 75.2352 43.8217 74.3486 44.4524C73.462 45.0831 72.7695 45.9493 72.3497 46.9531C71.5335 46.5177 70.6226 46.2899 69.6975 46.2899C68.7724 46.2899 67.8615 46.5177 67.0453 46.9531C66.6255 45.9493 65.933 45.0831 65.0464 44.4524C64.1598 43.8217 63.1143 43.4518 62.0283 43.3845C60.9424 43.3172 59.8592 43.5552 58.9015 44.0715C57.9438 44.5879 57.1497 45.362 56.6091 46.3062C56.4366 46.3062 56.8894 46.3062 53.4394 46.3062C55.5956 42.7772 57.2128 39.5787 57.2703 34.4253C58.2496 35.4082 59.4135 36.1878 60.6951 36.7195C61.9766 37.2511 63.3506 37.5242 64.7381 37.5231H77C79.3918 37.525 81.695 38.4289 83.4496 40.0543C85.2043 41.6798 86.2814 43.9071 86.4659 46.2918C82.0312 46.2918 82.9728 46.2847 82.7859 46.3062ZM77.7547 44.8112C78.6229 44.8126 79.4713 45.0714 80.1925 45.5548C80.9138 46.0382 81.4755 46.7246 81.8068 47.5272C82.1381 48.3298 82.2241 49.2125 82.0538 50.0639C81.8835 50.9153 81.4647 51.6972 80.8503 52.3106C80.2358 52.9241 79.4533 53.3416 78.6016 53.5105C77.7499 53.6793 76.8673 53.592 76.0653 53.2594C75.2632 52.9268 74.5778 52.3639 74.0956 51.6418C73.6133 50.9198 73.3559 50.071 73.3559 49.2028C73.3578 48.0436 73.8171 46.932 74.6341 46.1097C75.4511 45.2873 76.5596 44.8207 77.7187 44.8112H77.7547ZM61.6834 44.8112C62.552 44.8112 63.4011 45.0688 64.1233 45.5513C64.8454 46.0339 65.4083 46.7197 65.7407 47.5222C66.0731 48.3247 66.1601 49.2077 65.9906 50.0595C65.8212 50.9114 65.4029 51.6939 64.7887 52.3081C64.1746 52.9223 63.3921 53.3405 62.5402 53.51C61.6883 53.6794 60.8053 53.5924 60.0029 53.2601C59.2004 52.9277 58.5145 52.3648 58.032 51.6426C57.5494 50.9204 57.2919 50.0713 57.2919 49.2028C57.2937 48.0424 57.7541 46.9297 58.5726 46.1072C59.3911 45.2846 60.5015 44.8188 61.6619 44.8112H61.6834ZM92.3669 51.395C92.3669 51.8754 92.2722 52.3511 92.0884 52.795C91.9045 53.2388 91.6351 53.6422 91.2953 53.9819C90.9556 54.3216 90.5523 54.5911 90.1085 54.7749C89.6646 54.9588 89.1889 55.0534 88.7084 55.0534H87.9897V47.7293H88.7084C89.6756 47.7369 90.6006 48.1265 91.2819 48.8131C91.9631 49.4997 92.3453 50.4277 92.3453 51.395H92.3669ZM48.5231 33.9868C48.5158 31.6752 49.3309 29.4363 50.8228 27.6705C52.3147 25.9047 54.3861 24.7271 56.6666 24.3484C57.2272 24.255 59.175 21.4734 63.6025 21.4734H77C80.6749 21.4791 84.1982 22.939 86.8001 25.5342C89.402 28.1293 90.8711 31.6488 90.8862 35.3237C90.8862 38.824 90.9222 42.159 88.2916 46.2918H87.9178C87.732 43.5218 86.5013 40.9257 84.4746 39.0284C82.4478 37.1311 79.7762 36.0741 77 36.0712H64.7381C63.2357 36.0713 61.7565 35.6999 60.4323 34.9901C59.1081 34.2804 57.9799 33.2543 57.1481 32.0031C57.0624 31.8753 56.9379 31.7784 56.793 31.7267C56.6481 31.6749 56.4904 31.671 56.3431 31.7156C55.725 31.9025 55.8328 32.2834 55.8328 34.1881C55.8328 39.8375 53.6766 43.1365 51.7647 46.2918H51.125C48.1853 41.7062 48.5087 37.9256 48.5087 33.9868H48.5231ZM51.4628 55.0534H50.7441C50.2495 55.0753 49.7556 54.9968 49.2922 54.8227C48.8288 54.6485 48.4055 54.3823 48.0478 54.0401C47.6901 53.6979 47.4054 53.2868 47.2109 52.8316C47.0164 52.3763 46.9162 51.8864 46.9162 51.3914C46.9162 50.8963 47.0164 50.4064 47.2109 49.9512C47.4054 49.496 47.6901 49.0848 48.0478 48.7426C48.4055 48.4004 48.8288 48.1342 49.2922 47.9601C49.7556 47.7859 50.2495 47.7074 50.7441 47.7293H51.4628V55.0534ZM52.9003 54.3347V47.7293H56.0412C55.8237 48.555 55.7901 49.4183 55.943 50.2583C56.0958 51.0984 56.4314 51.8946 56.9258 52.5906C57.4203 53.2867 58.0617 53.8656 58.8045 54.2865C59.5474 54.7073 60.3737 54.9599 61.2249 55.0262C62.0762 55.0926 62.9316 54.9711 63.7307 54.6704C64.5298 54.3697 65.2531 53.8971 65.8495 53.2861C66.4458 52.6751 66.9007 51.9405 67.1818 51.1343C67.463 50.3281 67.5636 49.47 67.4766 48.6206C67.7281 47.4418 71.6884 47.4418 71.94 48.6206C71.856 49.4686 71.959 50.3246 72.2417 51.1285C72.5243 51.9324 72.9798 52.6645 73.576 53.2733C74.1721 53.8821 74.8946 54.3528 75.6923 54.6523C76.4901 54.9517 77.3438 55.0726 78.1933 55.0064C79.0429 54.9402 79.8676 54.6886 80.6094 54.2693C81.3512 53.8499 81.992 53.273 82.4867 52.5792C82.9814 51.8855 83.318 51.0916 83.4728 50.2537C83.6276 49.4158 83.5967 48.5541 83.3825 47.7293H86.5162V54.3131C86.4253 58.7107 84.6145 62.8974 81.4723 65.9753C78.3301 69.0532 74.1068 70.7771 69.7083 70.7771C65.3098 70.7771 61.0864 69.0532 57.9442 65.9753C54.802 62.8974 52.9913 58.7107 52.9003 54.3131V54.3347ZM74.8437 71.829V75.9259L69.7191 81.0506L64.5944 75.9259V71.8362C67.9431 72.8011 71.4964 72.7986 74.8437 71.829ZM66.535 87.8284L65.6581 85.205L69.6975 82.8978L73.7369 85.205L72.86 87.8284C72.638 88.4915 72.2133 89.068 71.6458 89.4765C71.0783 89.8849 70.3967 90.1047 69.6975 90.1047C68.9983 90.1047 68.3167 89.8849 67.7492 89.4765C67.1817 89.068 66.757 88.4915 66.535 87.8284ZM63.5522 76.9393C68.9141 82.3012 68.5834 81.8915 68.49 81.9275C58.8659 87.4259 71.3147 80.3103 61.7912 85.7656L60.3178 76.9393H63.5522ZM65.7084 93.6359L64.6016 102.527L62.0428 87.275L64.3859 85.9381C65.1047 88.1518 65.3994 89.7978 67.3184 90.9047C66.8759 91.2252 66.5035 91.6329 66.2242 92.1025C65.9449 92.5722 65.7645 93.094 65.6941 93.6359H65.7084ZM73.7081 93.6359C73.6406 93.0932 73.4615 92.5703 73.1819 92.1002C72.9023 91.6301 72.5284 91.2231 72.0837 90.9047C74.0028 89.7978 74.24 88.2093 75.0234 85.9381L77.3666 87.275L74.8437 102.527L73.7081 93.6359ZM77.6181 85.7297C66.075 79.1243 73.4422 83.3434 70.8834 81.87L75.85 76.9034H79.0844L77.6181 85.7297ZM86.8612 77.6581C90.6106 78.6982 93.9673 80.8268 96.5069 83.7747C93.6417 85.6055 91.4691 88.3397 90.3328 91.5443L86.8612 77.6581ZM111.579 108.766C109.187 110.116 106.449 110.726 103.71 110.519C100.971 110.313 98.3554 109.299 96.1929 107.606C94.0305 105.913 92.4187 103.616 91.5614 101.007C90.7041 98.3976 90.6398 95.5928 91.3767 92.947C92.1135 90.3012 93.6184 87.9333 95.701 86.1428C97.7836 84.3523 100.35 83.2195 103.077 82.8878C105.803 82.5561 108.567 83.0404 111.018 84.2793C113.469 85.5182 115.498 87.4562 116.847 89.8481C118.655 93.0558 119.116 96.85 118.128 100.397C117.14 103.944 114.785 106.954 111.579 108.766Z" fill="white"/>
<path d="M112.053 90.1141C107.906 90.1141 112.952 98.8756 106.21 98.8756H105.491V91.5516H106.21C106.401 91.5516 106.583 91.4758 106.718 91.3411C106.853 91.2063 106.929 91.0234 106.929 90.8328C106.929 90.6422 106.853 90.4594 106.718 90.3246C106.583 90.1898 106.401 90.1141 106.21 90.1141H103.292C103.101 90.1141 102.918 90.1898 102.784 90.3246C102.649 90.4594 102.573 90.6422 102.573 90.8328C102.573 91.0234 102.649 91.2063 102.784 91.3411C102.918 91.4758 103.101 91.5516 103.292 91.5516H104.011V98.8756C100.532 98.8756 99.4753 98.2647 99.3531 93.7366C99.31 92.0403 99.2597 90.1428 97.4269 90.1428C97.2363 90.1428 97.0535 90.2186 96.9187 90.3533C96.7839 90.4881 96.7081 90.6709 96.7081 90.8616C96.7081 91.0522 96.7839 91.235 96.9187 91.3698C97.0535 91.5046 97.2363 91.5803 97.4269 91.5803C97.7935 91.5803 97.8797 92.2991 97.9228 93.8084C98.0594 99.0122 99.6981 100.342 104.011 100.342V104.748H103.292C103.101 104.748 102.918 104.824 102.784 104.958C102.649 105.093 102.573 105.276 102.573 105.467C102.573 105.657 102.649 105.84 102.784 105.975C102.918 106.11 103.101 106.185 103.292 106.185H106.21C106.401 106.185 106.583 106.11 106.718 105.975C106.853 105.84 106.929 105.657 106.929 105.467C106.929 105.276 106.853 105.093 106.718 104.958C106.583 104.824 106.401 104.748 106.21 104.748H105.491V100.342H106.21C113.771 100.342 110.58 91.5803 112.053 91.5803C112.15 91.5803 112.245 91.5614 112.334 91.5245C112.423 91.4877 112.504 91.4337 112.572 91.3656C112.64 91.2975 112.694 91.2167 112.731 91.1278C112.768 91.0388 112.787 90.9435 112.787 90.8472C112.787 90.7509 112.768 90.6556 112.731 90.5666C112.694 90.4777 112.64 90.3969 112.572 90.3288C112.504 90.2607 112.423 90.2067 112.334 90.1699C112.245 90.133 112.15 90.1141 112.053 90.1141Z" fill="white"/>
</g>
<defs>
<clipPath id="clip0_16_155">
<rect width="92" height="92" fill="white" transform="translate(31 20)"/>
</clipPath>
</defs>
</svg>
