<svg width="170" height="170" viewBox="0 0 170 170" fill="none" xmlns="http://www.w3.org/2000/svg">
<circle cx="85" cy="85" r="85" fill="white"/>
<circle cx="85" cy="85" r="72" fill="#007EC3"/>
<path d="M107.179 88.4728H107.95C111.229 88.4728 113.929 85.7728 113.929 82.4942C113.929 79.2156 111.229 76.5156 107.95 76.5156H107.179" stroke="white" stroke-width="1.85714" stroke-miterlimit="10" stroke-linecap="round" stroke-linejoin="round"/>
<path d="M101.971 85.0011C101.971 94.4511 94.45 101.973 85 101.973C75.55 101.973 68.0285 94.2582 68.0285 85.0011V76.5154C68.0285 67.0654 75.55 59.5439 85 59.5439C94.45 59.5439 101.971 67.2582 101.971 76.5154V85.0011Z" stroke="white" stroke-width="1.85714" stroke-miterlimit="10" stroke-linecap="round" stroke-linejoin="round"/>
<path d="M62.8213 88.473V74.7801C62.8213 62.4373 72.8499 52.6016 84.9999 52.6016C97.1499 52.6016 107.178 62.4373 107.178 74.7801V88.473" stroke="white" stroke-width="1.85714" stroke-miterlimit="10" stroke-linecap="round" stroke-linejoin="round"/>
<path d="M115.664 117.401C115.664 111.809 111.036 107.18 105.443 107.18H100.236C97.5356 107.18 95.4142 105.059 95.4142 102.359V98.6943" stroke="white" stroke-width="1.85714" stroke-miterlimit="10" stroke-linecap="round" stroke-linejoin="round"/>
<path d="M74.7785 98.6943V102.359C74.7785 105.059 72.6571 107.18 69.9571 107.18H64.5571C58.9642 107.18 54.3356 111.809 54.3356 117.401" stroke="white" stroke-width="1.85714" stroke-miterlimit="10" stroke-linecap="round" stroke-linejoin="round"/>
<path d="M92.9071 90.4013C90.9785 92.5228 88.0856 93.8728 84.9999 93.8728C81.7213 93.8728 78.8285 92.3299 76.7071 90.0156" stroke="white" stroke-width="1.85714" stroke-miterlimit="10" stroke-linecap="round" stroke-linejoin="round"/>
<path d="M73.4285 106.217C76.5142 108.917 80.3714 110.652 84.8071 110.652C89.4357 110.652 93.4857 108.917 96.5714 105.831" stroke="white" stroke-width="1.85714" stroke-miterlimit="10" stroke-linecap="round" stroke-linejoin="round"/>
<path d="M101.971 76.5156H81.5285C77.8643 76.5156 74.7785 73.4299 74.7785 69.7656" stroke="white" stroke-width="1.85714" stroke-miterlimit="10" stroke-linecap="round" stroke-linejoin="round"/>
</svg>
