<svg width="246" height="27" viewBox="0 0 246 27" fill="none" xmlns="http://www.w3.org/2000/svg">
<path d="M29 0.5C28.6022 0.5 28.2206 0.658035 27.9393 0.93934C27.658 1.22064 27.5 1.60218 27.5 2V6C27.5 6.39783 27.658 6.77936 27.9393 7.06066C28.2206 7.34197 28.6022 7.5 29 7.5C29.3978 7.5 29.7794 7.34197 30.0607 7.06066C30.342 6.77936 30.5 6.39783 30.5 6V2C30.5 1.60218 30.342 1.22064 30.0607 0.93934C29.7794 0.658035 29.3978 0.5 29 0.5V0.5Z" stroke="black" stroke-width="0.5" stroke-linecap="round" stroke-linejoin="round"/>
<path d="M32.5 5V6C32.5 6.92826 32.1313 7.8185 31.4749 8.47487C30.8185 9.13125 29.9283 9.5 29 9.5C28.0717 9.5 27.1815 9.13125 26.5251 8.47487C25.8687 7.8185 25.5 6.92826 25.5 6V5" stroke="black" stroke-width="0.5" stroke-linecap="round" stroke-linejoin="round"/>
<path d="M29 9.5V11.5" stroke="black" stroke-width="0.5" stroke-linecap="round" stroke-linejoin="round"/>
<path d="M27 11.5H31" stroke="black" stroke-width="0.5" stroke-linecap="round" stroke-linejoin="round"/>
<path d="M2.89062 21.3398H1.44922L1.44141 20.7344H2.75C2.96615 20.7344 3.15495 20.6979 3.31641 20.625C3.47786 20.5521 3.60286 20.4479 3.69141 20.3125C3.78255 20.1745 3.82812 20.0104 3.82812 19.8203C3.82812 19.612 3.78776 19.4427 3.70703 19.3125C3.62891 19.1797 3.50781 19.0833 3.34375 19.0234C3.18229 18.9609 2.97656 18.9297 2.72656 18.9297H1.61719V24H0.863281V18.3125H2.72656C3.01823 18.3125 3.27865 18.3424 3.50781 18.4023C3.73698 18.4596 3.93099 18.5508 4.08984 18.6758C4.2513 18.7982 4.3737 18.9544 4.45703 19.1445C4.54036 19.3346 4.58203 19.5625 4.58203 19.8281C4.58203 20.0625 4.52214 20.2747 4.40234 20.4648C4.28255 20.6523 4.11589 20.806 3.90234 20.9258C3.69141 21.0456 3.44401 21.1224 3.16016 21.1562L2.89062 21.3398ZM2.85547 24H1.15234L1.57812 23.3867H2.85547C3.09505 23.3867 3.29818 23.3451 3.46484 23.2617C3.63411 23.1784 3.76302 23.0612 3.85156 22.9102C3.9401 22.7565 3.98438 22.5755 3.98438 22.3672C3.98438 22.1562 3.94661 21.974 3.87109 21.8203C3.79557 21.6667 3.67708 21.5482 3.51562 21.4648C3.35417 21.3815 3.14583 21.3398 2.89062 21.3398H1.81641L1.82422 20.7344H3.29297L3.45312 20.9531C3.72656 20.9766 3.95833 21.0547 4.14844 21.1875C4.33854 21.3177 4.48307 21.4844 4.58203 21.6875C4.68359 21.8906 4.73438 22.1146 4.73438 22.3594C4.73438 22.7135 4.65625 23.013 4.5 23.2578C4.34635 23.5 4.12891 23.6849 3.84766 23.8125C3.56641 23.9375 3.23568 24 2.85547 24ZM8.32422 23.0234V19.7734H9.05078V24H8.35938L8.32422 23.0234ZM8.46094 22.1328L8.76172 22.125C8.76172 22.4062 8.73177 22.6667 8.67188 22.9062C8.61458 23.1432 8.52083 23.349 8.39062 23.5234C8.26042 23.6979 8.08984 23.8346 7.87891 23.9336C7.66797 24.0299 7.41146 24.0781 7.10938 24.0781C6.90365 24.0781 6.71484 24.0482 6.54297 23.9883C6.3737 23.9284 6.22786 23.8359 6.10547 23.7109C5.98307 23.5859 5.88802 23.4232 5.82031 23.2227C5.75521 23.0221 5.72266 22.7812 5.72266 22.5V19.7734H6.44531V22.5078C6.44531 22.6979 6.46615 22.8555 6.50781 22.9805C6.55208 23.1029 6.61068 23.2005 6.68359 23.2734C6.75911 23.3438 6.84245 23.3932 6.93359 23.4219C7.02734 23.4505 7.1237 23.4648 7.22266 23.4648C7.52995 23.4648 7.77344 23.4062 7.95312 23.2891C8.13281 23.1693 8.26172 23.0091 8.33984 22.8086C8.42057 22.6055 8.46094 22.3802 8.46094 22.1328ZM12.6133 22.8789C12.6133 22.7747 12.5898 22.6784 12.543 22.5898C12.4987 22.4987 12.4062 22.4167 12.2656 22.3438C12.1276 22.2682 11.9193 22.2031 11.6406 22.1484C11.4062 22.099 11.194 22.0404 11.0039 21.9727C10.8164 21.9049 10.6562 21.8229 10.5234 21.7266C10.3932 21.6302 10.293 21.5169 10.2227 21.3867C10.1523 21.2565 10.1172 21.1042 10.1172 20.9297C10.1172 20.763 10.1536 20.6055 10.2266 20.457C10.3021 20.3086 10.4076 20.1771 10.543 20.0625C10.681 19.9479 10.8464 19.8581 11.0391 19.793C11.2318 19.7279 11.4466 19.6953 11.6836 19.6953C12.0221 19.6953 12.3112 19.7552 12.5508 19.875C12.7904 19.9948 12.974 20.1549 13.1016 20.3555C13.2292 20.5534 13.293 20.7734 13.293 21.0156H12.5703C12.5703 20.8984 12.5352 20.7852 12.4648 20.6758C12.3971 20.5638 12.2969 20.4714 12.1641 20.3984C12.0339 20.3255 11.8737 20.2891 11.6836 20.2891C11.4831 20.2891 11.3203 20.3203 11.1953 20.3828C11.0729 20.4427 10.9831 20.5195 10.9258 20.6133C10.8711 20.707 10.8438 20.806 10.8438 20.9102C10.8438 20.9883 10.8568 21.0586 10.8828 21.1211C10.9115 21.181 10.9609 21.237 11.0312 21.2891C11.1016 21.3385 11.2005 21.3854 11.3281 21.4297C11.4557 21.474 11.6185 21.5182 11.8164 21.5625C12.1628 21.6406 12.4479 21.7344 12.6719 21.8438C12.8958 21.9531 13.0625 22.0872 13.1719 22.2461C13.2812 22.4049 13.3359 22.5977 13.3359 22.8242C13.3359 23.0091 13.2969 23.1784 13.2188 23.332C13.1432 23.4857 13.0326 23.6185 12.8867 23.7305C12.7435 23.8398 12.5716 23.9258 12.3711 23.9883C12.1732 24.0482 11.9505 24.0781 11.7031 24.0781C11.3307 24.0781 11.0156 24.0117 10.7578 23.8789C10.5 23.7461 10.3047 23.5742 10.1719 23.3633C10.0391 23.1523 9.97266 22.9297 9.97266 22.6953H10.6992C10.7096 22.8932 10.7669 23.0508 10.8711 23.168C10.9753 23.2826 11.1029 23.3646 11.2539 23.4141C11.4049 23.4609 11.5547 23.4844 11.7031 23.4844C11.901 23.4844 12.0664 23.4583 12.1992 23.4062C12.3346 23.3542 12.4375 23.2826 12.5078 23.1914C12.5781 23.1003 12.6133 22.9961 12.6133 22.8789ZM15.9766 23.4844C16.1484 23.4844 16.3073 23.4492 16.4531 23.3789C16.599 23.3086 16.7188 23.2122 16.8125 23.0898C16.9062 22.9648 16.9596 22.8229 16.9727 22.6641H17.6602C17.6471 22.9141 17.5625 23.1471 17.4062 23.3633C17.2526 23.5768 17.0508 23.75 16.8008 23.8828C16.5508 24.013 16.276 24.0781 15.9766 24.0781C15.6589 24.0781 15.3815 24.0221 15.1445 23.9102C14.9102 23.7982 14.7148 23.6445 14.5586 23.4492C14.4049 23.2539 14.2891 23.0299 14.2109 22.7773C14.1354 22.5221 14.0977 22.2526 14.0977 21.9688V21.8047C14.0977 21.5208 14.1354 21.2526 14.2109 21C14.2891 20.7448 14.4049 20.5195 14.5586 20.3242C14.7148 20.1289 14.9102 19.9753 15.1445 19.8633C15.3815 19.7513 15.6589 19.6953 15.9766 19.6953C16.3073 19.6953 16.5964 19.763 16.8438 19.8984C17.0911 20.0312 17.2852 20.2135 17.4258 20.4453C17.569 20.6745 17.6471 20.9349 17.6602 21.2266H16.9727C16.9596 21.0521 16.9102 20.8945 16.8242 20.7539C16.7409 20.6133 16.6263 20.5013 16.4805 20.418C16.3372 20.332 16.1693 20.2891 15.9766 20.2891C15.7552 20.2891 15.569 20.3333 15.418 20.4219C15.2695 20.5078 15.151 20.625 15.0625 20.7734C14.9766 20.9193 14.9141 21.082 14.875 21.2617C14.8385 21.4388 14.8203 21.6198 14.8203 21.8047V21.9688C14.8203 22.1536 14.8385 22.3359 14.875 22.5156C14.9115 22.6953 14.9727 22.8581 15.0586 23.0039C15.1471 23.1497 15.2656 23.2669 15.4141 23.3555C15.5651 23.4414 15.7526 23.4844 15.9766 23.4844ZM20.9648 23.2773V21.1016C20.9648 20.9349 20.931 20.7904 20.8633 20.668C20.7982 20.543 20.6992 20.4466 20.5664 20.3789C20.4336 20.3112 20.2695 20.2773 20.0742 20.2773C19.8919 20.2773 19.7318 20.3086 19.5938 20.3711C19.4583 20.4336 19.3516 20.5156 19.2734 20.6172C19.1979 20.7188 19.1602 20.8281 19.1602 20.9453H18.4375C18.4375 20.7943 18.4766 20.6445 18.5547 20.4961C18.6328 20.3477 18.7448 20.2135 18.8906 20.0938C19.0391 19.9714 19.2161 19.875 19.4219 19.8047C19.6302 19.7318 19.862 19.6953 20.1172 19.6953C20.4245 19.6953 20.6953 19.7474 20.9297 19.8516C21.1667 19.9557 21.3516 20.1133 21.4844 20.3242C21.6198 20.5326 21.6875 20.7943 21.6875 21.1094V23.0781C21.6875 23.2188 21.6992 23.3685 21.7227 23.5273C21.7487 23.6862 21.7865 23.8229 21.8359 23.9375V24H21.082C21.0456 23.9167 21.0169 23.806 20.9961 23.668C20.9753 23.5273 20.9648 23.3971 20.9648 23.2773ZM21.0898 21.4375L21.0977 21.9453H20.3672C20.1615 21.9453 19.9779 21.9622 19.8164 21.9961C19.6549 22.0273 19.5195 22.0755 19.4102 22.1406C19.3008 22.2057 19.2174 22.2878 19.1602 22.3867C19.1029 22.4831 19.0742 22.5964 19.0742 22.7266C19.0742 22.8594 19.1042 22.9805 19.1641 23.0898C19.224 23.1992 19.3138 23.2865 19.4336 23.3516C19.556 23.4141 19.7057 23.4453 19.8828 23.4453C20.1042 23.4453 20.2995 23.3984 20.4688 23.3047C20.638 23.2109 20.7721 23.0964 20.8711 22.9609C20.9727 22.8255 21.0273 22.694 21.0352 22.5664L21.3438 22.9141C21.3255 23.0234 21.276 23.1445 21.1953 23.2773C21.1146 23.4102 21.0065 23.5378 20.8711 23.6602C20.7383 23.7799 20.5794 23.8802 20.3945 23.9609C20.2122 24.0391 20.0065 24.0781 19.7773 24.0781C19.4909 24.0781 19.2396 24.0221 19.0234 23.9102C18.8099 23.7982 18.6432 23.6484 18.5234 23.4609C18.4062 23.2708 18.3477 23.0586 18.3477 22.8242C18.3477 22.5977 18.3919 22.3984 18.4805 22.2266C18.569 22.0521 18.6966 21.9076 18.8633 21.793C19.0299 21.6758 19.2305 21.5872 19.4648 21.5273C19.6992 21.4674 19.9609 21.4375 20.25 21.4375H21.0898ZM25.5312 20.5859V25.625H24.8047V19.7734H25.4688L25.5312 20.5859ZM28.3789 21.8516V21.9336C28.3789 22.2409 28.3424 22.526 28.2695 22.7891C28.1966 23.0495 28.0898 23.276 27.9492 23.4688C27.8112 23.6615 27.6406 23.8112 27.4375 23.918C27.2344 24.0247 27.0013 24.0781 26.7383 24.0781C26.4701 24.0781 26.2331 24.0339 26.0273 23.9453C25.8216 23.8568 25.6471 23.7279 25.5039 23.5586C25.3607 23.3893 25.2461 23.1862 25.1602 22.9492C25.0768 22.7122 25.0195 22.4453 24.9883 22.1484V21.7109C25.0195 21.3984 25.0781 21.1185 25.1641 20.8711C25.25 20.6237 25.3633 20.4128 25.5039 20.2383C25.6471 20.0612 25.8203 19.9271 26.0234 19.8359C26.2266 19.7422 26.4609 19.6953 26.7266 19.6953C26.9922 19.6953 27.2279 19.7474 27.4336 19.8516C27.6393 19.9531 27.8125 20.099 27.9531 20.2891C28.0938 20.4792 28.1992 20.707 28.2695 20.9727C28.3424 21.2357 28.3789 21.5286 28.3789 21.8516ZM27.6523 21.9336V21.8516C27.6523 21.6406 27.6302 21.4427 27.5859 21.2578C27.5417 21.0703 27.4727 20.9062 27.3789 20.7656C27.2878 20.6224 27.1706 20.5104 27.0273 20.4297C26.8841 20.3464 26.7135 20.3047 26.5156 20.3047C26.3333 20.3047 26.1745 20.3359 26.0391 20.3984C25.9062 20.4609 25.793 20.5456 25.6992 20.6523C25.6055 20.7565 25.5286 20.8763 25.4688 21.0117C25.4115 21.1445 25.3685 21.2826 25.3398 21.4258V22.4375C25.3919 22.6198 25.4648 22.7917 25.5586 22.9531C25.6523 23.112 25.7773 23.2409 25.9336 23.3398C26.0898 23.4362 26.2865 23.4844 26.5234 23.4844C26.7188 23.4844 26.8867 23.444 27.0273 23.3633C27.1706 23.2799 27.2878 23.1667 27.3789 23.0234C27.4727 22.8802 27.5417 22.7161 27.5859 22.5312C27.6302 22.3438 27.6523 22.1445 27.6523 21.9336ZM29.1094 21.9336V21.8438C29.1094 21.5391 29.1536 21.2565 29.2422 20.9961C29.3307 20.7331 29.4583 20.5052 29.625 20.3125C29.7917 20.1172 29.9935 19.9661 30.2305 19.8594C30.4674 19.75 30.7331 19.6953 31.0273 19.6953C31.3242 19.6953 31.5911 19.75 31.8281 19.8594C32.0677 19.9661 32.2708 20.1172 32.4375 20.3125C32.6068 20.5052 32.7357 20.7331 32.8242 20.9961C32.9128 21.2565 32.957 21.5391 32.957 21.8438V21.9336C32.957 22.2383 32.9128 22.5208 32.8242 22.7812C32.7357 23.0417 32.6068 23.2695 32.4375 23.4648C32.2708 23.6576 32.069 23.8086 31.832 23.918C31.5977 24.0247 31.332 24.0781 31.0352 24.0781C30.7383 24.0781 30.4714 24.0247 30.2344 23.918C29.9974 23.8086 29.7943 23.6576 29.625 23.4648C29.4583 23.2695 29.3307 23.0417 29.2422 22.7812C29.1536 22.5208 29.1094 22.2383 29.1094 21.9336ZM29.832 21.8438V21.9336C29.832 22.1445 29.8568 22.3438 29.9062 22.5312C29.9557 22.7161 30.0299 22.8802 30.1289 23.0234C30.2305 23.1667 30.3568 23.2799 30.5078 23.3633C30.6589 23.444 30.8346 23.4844 31.0352 23.4844C31.2331 23.4844 31.4062 23.444 31.5547 23.3633C31.7057 23.2799 31.8307 23.1667 31.9297 23.0234C32.0286 22.8802 32.1029 22.7161 32.1523 22.5312C32.2044 22.3438 32.2305 22.1445 32.2305 21.9336V21.8438C32.2305 21.6354 32.2044 21.4388 32.1523 21.2539C32.1029 21.0664 32.0273 20.901 31.9258 20.7578C31.8268 20.612 31.7018 20.4974 31.5508 20.4141C31.4023 20.3307 31.2279 20.2891 31.0273 20.2891C30.8294 20.2891 30.6549 20.3307 30.5039 20.4141C30.3555 20.4974 30.2305 20.612 30.1289 20.7578C30.0299 20.901 29.9557 21.0664 29.9062 21.2539C29.8568 21.4388 29.832 21.6354 29.832 21.8438ZM34.5859 20.4375V24H33.8633V19.7734H34.5664L34.5859 20.4375ZM35.9062 19.75L35.9023 20.4219C35.8424 20.4089 35.7852 20.401 35.7305 20.3984C35.6784 20.3932 35.6185 20.3906 35.5508 20.3906C35.3841 20.3906 35.237 20.4167 35.1094 20.4688C34.9818 20.5208 34.8737 20.5938 34.7852 20.6875C34.6966 20.7812 34.6263 20.8932 34.5742 21.0234C34.5247 21.151 34.4922 21.2917 34.4766 21.4453L34.2734 21.5625C34.2734 21.3073 34.2982 21.0677 34.3477 20.8438C34.3997 20.6198 34.4792 20.4219 34.5859 20.25C34.6927 20.0755 34.8281 19.9401 34.9922 19.8438C35.1589 19.7448 35.3568 19.6953 35.5859 19.6953C35.638 19.6953 35.6979 19.7018 35.7656 19.7148C35.8333 19.7253 35.8802 19.737 35.9062 19.75ZM41.0508 23.2773V21.1016C41.0508 20.9349 41.0169 20.7904 40.9492 20.668C40.8841 20.543 40.7852 20.4466 40.6523 20.3789C40.5195 20.3112 40.3555 20.2773 40.1602 20.2773C39.9779 20.2773 39.8177 20.3086 39.6797 20.3711C39.5443 20.4336 39.4375 20.5156 39.3594 20.6172C39.2839 20.7188 39.2461 20.8281 39.2461 20.9453H38.5234C38.5234 20.7943 38.5625 20.6445 38.6406 20.4961C38.7188 20.3477 38.8307 20.2135 38.9766 20.0938C39.125 19.9714 39.3021 19.875 39.5078 19.8047C39.7161 19.7318 39.9479 19.6953 40.2031 19.6953C40.5104 19.6953 40.7812 19.7474 41.0156 19.8516C41.2526 19.9557 41.4375 20.1133 41.5703 20.3242C41.7057 20.5326 41.7734 20.7943 41.7734 21.1094V23.0781C41.7734 23.2188 41.7852 23.3685 41.8086 23.5273C41.8346 23.6862 41.8724 23.8229 41.9219 23.9375V24H41.168C41.1315 23.9167 41.1029 23.806 41.082 23.668C41.0612 23.5273 41.0508 23.3971 41.0508 23.2773ZM41.1758 21.4375L41.1836 21.9453H40.4531C40.2474 21.9453 40.0638 21.9622 39.9023 21.9961C39.7409 22.0273 39.6055 22.0755 39.4961 22.1406C39.3867 22.2057 39.3034 22.2878 39.2461 22.3867C39.1888 22.4831 39.1602 22.5964 39.1602 22.7266C39.1602 22.8594 39.1901 22.9805 39.25 23.0898C39.3099 23.1992 39.3997 23.2865 39.5195 23.3516C39.6419 23.4141 39.7917 23.4453 39.9688 23.4453C40.1901 23.4453 40.3854 23.3984 40.5547 23.3047C40.724 23.2109 40.8581 23.0964 40.957 22.9609C41.0586 22.8255 41.1133 22.694 41.1211 22.5664L41.4297 22.9141C41.4115 23.0234 41.362 23.1445 41.2812 23.2773C41.2005 23.4102 41.0924 23.5378 40.957 23.6602C40.8242 23.7799 40.6654 23.8802 40.4805 23.9609C40.2982 24.0391 40.0924 24.0781 39.8633 24.0781C39.5768 24.0781 39.3255 24.0221 39.1094 23.9102C38.8958 23.7982 38.7292 23.6484 38.6094 23.4609C38.4922 23.2708 38.4336 23.0586 38.4336 22.8242C38.4336 22.5977 38.4779 22.3984 38.5664 22.2266C38.6549 22.0521 38.7826 21.9076 38.9492 21.793C39.1159 21.6758 39.3164 21.5872 39.5508 21.5273C39.7852 21.4674 40.0469 21.4375 40.3359 21.4375H41.1758ZM39.8828 19.1484L40.6406 18H41.5117L40.4648 19.1484H39.8828ZM45.4961 23.0234V19.7734H46.2227V24H45.5312L45.4961 23.0234ZM45.6328 22.1328L45.9336 22.125C45.9336 22.4062 45.9036 22.6667 45.8438 22.9062C45.7865 23.1432 45.6927 23.349 45.5625 23.5234C45.4323 23.6979 45.2617 23.8346 45.0508 23.9336C44.8398 24.0299 44.5833 24.0781 44.2812 24.0781C44.0755 24.0781 43.8867 24.0482 43.7148 23.9883C43.5456 23.9284 43.3997 23.8359 43.2773 23.7109C43.1549 23.5859 43.0599 23.4232 42.9922 23.2227C42.9271 23.0221 42.8945 22.7812 42.8945 22.5V19.7734H43.6172V22.5078C43.6172 22.6979 43.638 22.8555 43.6797 22.9805C43.724 23.1029 43.7826 23.2005 43.8555 23.2734C43.931 23.3438 44.0143 23.3932 44.1055 23.4219C44.1992 23.4505 44.2956 23.4648 44.3945 23.4648C44.7018 23.4648 44.9453 23.4062 45.125 23.2891C45.3047 23.1693 45.4336 23.0091 45.5117 22.8086C45.5924 22.6055 45.6328 22.3802 45.6328 22.1328ZM49.9883 23.1797V18H50.7148V24H50.0508L49.9883 23.1797ZM47.1445 21.9336V21.8516C47.1445 21.5286 47.1836 21.2357 47.2617 20.9727C47.3424 20.707 47.4557 20.4792 47.6016 20.2891C47.75 20.099 47.9258 19.9531 48.1289 19.8516C48.3346 19.7474 48.5638 19.6953 48.8164 19.6953C49.082 19.6953 49.3138 19.7422 49.5117 19.8359C49.7122 19.9271 49.8815 20.0612 50.0195 20.2383C50.1602 20.4128 50.2708 20.6237 50.3516 20.8711C50.4323 21.1185 50.4883 21.3984 50.5195 21.7109V22.0703C50.4909 22.3802 50.4349 22.6589 50.3516 22.9062C50.2708 23.1536 50.1602 23.3646 50.0195 23.5391C49.8815 23.7135 49.7122 23.8477 49.5117 23.9414C49.3112 24.0326 49.0768 24.0781 48.8086 24.0781C48.5612 24.0781 48.3346 24.0247 48.1289 23.918C47.9258 23.8112 47.75 23.6615 47.6016 23.4688C47.4557 23.276 47.3424 23.0495 47.2617 22.7891C47.1836 22.526 47.1445 22.2409 47.1445 21.9336ZM47.8711 21.8516V21.9336C47.8711 22.1445 47.8919 22.3424 47.9336 22.5273C47.9779 22.7122 48.0456 22.875 48.1367 23.0156C48.2279 23.1562 48.3438 23.2669 48.4844 23.3477C48.625 23.4258 48.793 23.4648 48.9883 23.4648C49.2279 23.4648 49.4245 23.4141 49.5781 23.3125C49.7344 23.2109 49.8594 23.0768 49.9531 22.9102C50.0469 22.7435 50.1198 22.5625 50.1719 22.3672V21.4258C50.1406 21.2826 50.0951 21.1445 50.0352 21.0117C49.9779 20.8763 49.9023 20.7565 49.8086 20.6523C49.7174 20.5456 49.6042 20.4609 49.4688 20.3984C49.3359 20.3359 49.1784 20.3047 48.9961 20.3047C48.7982 20.3047 48.6276 20.3464 48.4844 20.4297C48.3438 20.5104 48.2279 20.6224 48.1367 20.7656C48.0456 20.9062 47.9779 21.0703 47.9336 21.2578C47.8919 21.4427 47.8711 21.6406 47.8711 21.8516ZM52.625 19.7734V24H51.8984V19.7734H52.625ZM51.8438 18.6523C51.8438 18.5352 51.8789 18.4362 51.9492 18.3555C52.0221 18.2747 52.1289 18.2344 52.2695 18.2344C52.4076 18.2344 52.513 18.2747 52.5859 18.3555C52.6615 18.4362 52.6992 18.5352 52.6992 18.6523C52.6992 18.7643 52.6615 18.8607 52.5859 18.9414C52.513 19.0195 52.4076 19.0586 52.2695 19.0586C52.1289 19.0586 52.0221 19.0195 51.9492 18.9414C51.8789 18.8607 51.8438 18.7643 51.8438 18.6523ZM53.5938 21.9336V21.8438C53.5938 21.5391 53.638 21.2565 53.7266 20.9961C53.8151 20.7331 53.9427 20.5052 54.1094 20.3125C54.276 20.1172 54.4779 19.9661 54.7148 19.8594C54.9518 19.75 55.2174 19.6953 55.5117 19.6953C55.8086 19.6953 56.0755 19.75 56.3125 19.8594C56.5521 19.9661 56.7552 20.1172 56.9219 20.3125C57.0911 20.5052 57.2201 20.7331 57.3086 20.9961C57.3971 21.2565 57.4414 21.5391 57.4414 21.8438V21.9336C57.4414 22.2383 57.3971 22.5208 57.3086 22.7812C57.2201 23.0417 57.0911 23.2695 56.9219 23.4648C56.7552 23.6576 56.5534 23.8086 56.3164 23.918C56.082 24.0247 55.8164 24.0781 55.5195 24.0781C55.2227 24.0781 54.9557 24.0247 54.7188 23.918C54.4818 23.8086 54.2786 23.6576 54.1094 23.4648C53.9427 23.2695 53.8151 23.0417 53.7266 22.7812C53.638 22.5208 53.5938 22.2383 53.5938 21.9336ZM54.3164 21.8438V21.9336C54.3164 22.1445 54.3411 22.3438 54.3906 22.5312C54.4401 22.7161 54.5143 22.8802 54.6133 23.0234C54.7148 23.1667 54.8411 23.2799 54.9922 23.3633C55.1432 23.444 55.319 23.4844 55.5195 23.4844C55.7174 23.4844 55.8906 23.444 56.0391 23.3633C56.1901 23.2799 56.3151 23.1667 56.4141 23.0234C56.513 22.8802 56.5872 22.7161 56.6367 22.5312C56.6888 22.3438 56.7148 22.1445 56.7148 21.9336V21.8438C56.7148 21.6354 56.6888 21.4388 56.6367 21.2539C56.5872 21.0664 56.5117 20.901 56.4102 20.7578C56.3112 20.612 56.1862 20.4974 56.0352 20.4141C55.8867 20.3307 55.7122 20.2891 55.5117 20.2891C55.3138 20.2891 55.1393 20.3307 54.9883 20.4141C54.8398 20.4974 54.7148 20.612 54.6133 20.7578C54.5143 20.901 54.4401 21.0664 54.3906 21.2539C54.3411 21.4388 54.3164 21.6354 54.3164 21.8438Z" fill="black"/>
<rect x="114" width="1" height="27" fill="#D9D9D9"/>
<rect x="202.781" y="0.28125" width="11.4375" height="8.4375" rx="0.84375" stroke="black" stroke-width="0.5625"/>
<rect x="204.5" y="1.6875" width="0.5" height="5.625" fill="black"/>
<rect x="206" y="6.80078" width="0.511364" height="5" transform="rotate(-90 206 6.80078)" fill="black"/>
<path d="M206 1.6875H206.5V5.26705H206V1.6875Z" fill="black"/>
<rect x="207.5" y="1.6875" width="0.5" height="3.57955" fill="black"/>
<rect x="209" y="1.6875" width="0.5" height="3.57955" fill="black"/>
<rect x="210.5" y="1.6875" width="0.5" height="3.57955" fill="black"/>
<rect x="212" y="1.6875" width="0.5" height="5.625" fill="black"/>
<path d="M175.434 20.3867V21H172.59V20.3867H175.434ZM172.738 15.3125V21H171.984V15.3125H172.738ZM177.941 21.0781C177.647 21.0781 177.38 21.0286 177.141 20.9297C176.904 20.8281 176.699 20.6862 176.527 20.5039C176.358 20.3216 176.228 20.1055 176.137 19.8555C176.046 19.6055 176 19.332 176 19.0352V18.8711C176 18.5273 176.051 18.2214 176.152 17.9531C176.254 17.6823 176.392 17.4531 176.566 17.2656C176.741 17.0781 176.939 16.9362 177.16 16.8398C177.382 16.7435 177.611 16.6953 177.848 16.6953C178.15 16.6953 178.41 16.7474 178.629 16.8516C178.85 16.9557 179.031 17.1016 179.172 17.2891C179.312 17.474 179.417 17.6927 179.484 17.9453C179.552 18.1953 179.586 18.4688 179.586 18.7656V19.0898H176.43V18.5H178.863V18.4453C178.853 18.2578 178.814 18.0755 178.746 17.8984C178.681 17.7214 178.577 17.5755 178.434 17.4609C178.29 17.3464 178.095 17.2891 177.848 17.2891C177.684 17.2891 177.533 17.3242 177.395 17.3945C177.257 17.4622 177.138 17.5638 177.039 17.6992C176.94 17.8346 176.863 18 176.809 18.1953C176.754 18.3906 176.727 18.6159 176.727 18.8711V19.0352C176.727 19.2357 176.754 19.4245 176.809 19.6016C176.866 19.776 176.948 19.9297 177.055 20.0625C177.164 20.1953 177.296 20.2995 177.449 20.375C177.605 20.4505 177.783 20.4883 177.98 20.4883C178.236 20.4883 178.452 20.4362 178.629 20.332C178.806 20.2279 178.961 20.0885 179.094 19.9141L179.531 20.2617C179.44 20.3997 179.324 20.5312 179.184 20.6562C179.043 20.7812 178.87 20.8828 178.664 20.9609C178.461 21.0391 178.22 21.0781 177.941 21.0781ZM181.152 17.4375V21H180.43V16.7734H181.133L181.152 17.4375ZM182.473 16.75L182.469 17.4219C182.409 17.4089 182.352 17.401 182.297 17.3984C182.245 17.3932 182.185 17.3906 182.117 17.3906C181.951 17.3906 181.803 17.4167 181.676 17.4688C181.548 17.5208 181.44 17.5938 181.352 17.6875C181.263 17.7812 181.193 17.8932 181.141 18.0234C181.091 18.151 181.059 18.2917 181.043 18.4453L180.84 18.5625C180.84 18.3073 180.865 18.0677 180.914 17.8438C180.966 17.6198 181.046 17.4219 181.152 17.25C181.259 17.0755 181.395 16.9401 181.559 16.8438C181.725 16.7448 181.923 16.6953 182.152 16.6953C182.204 16.6953 182.264 16.7018 182.332 16.7148C182.4 16.7253 182.447 16.737 182.473 16.75ZM188.668 19.1914H189.418C189.379 19.5508 189.276 19.8724 189.109 20.1562C188.943 20.4401 188.707 20.6654 188.402 20.832C188.098 20.9961 187.717 21.0781 187.262 21.0781C186.928 21.0781 186.625 21.0156 186.352 20.8906C186.081 20.7656 185.848 20.5885 185.652 20.3594C185.457 20.1276 185.306 19.8503 185.199 19.5273C185.095 19.2018 185.043 18.8398 185.043 18.4414V17.875C185.043 17.4766 185.095 17.1159 185.199 16.793C185.306 16.4674 185.458 16.1888 185.656 15.957C185.857 15.7253 186.098 15.5469 186.379 15.4219C186.66 15.2969 186.977 15.2344 187.328 15.2344C187.758 15.2344 188.121 15.3151 188.418 15.4766C188.715 15.638 188.945 15.862 189.109 16.1484C189.276 16.4323 189.379 16.7617 189.418 17.1367H188.668C188.632 16.8711 188.564 16.6432 188.465 16.4531C188.366 16.2604 188.225 16.112 188.043 16.0078C187.861 15.9036 187.622 15.8516 187.328 15.8516C187.076 15.8516 186.853 15.8997 186.66 15.9961C186.47 16.0924 186.31 16.2292 186.18 16.4062C186.052 16.5833 185.956 16.7956 185.891 17.043C185.826 17.2904 185.793 17.5651 185.793 17.8672V18.4414C185.793 18.7201 185.822 18.9818 185.879 19.2266C185.939 19.4714 186.029 19.6862 186.148 19.8711C186.268 20.056 186.421 20.2018 186.605 20.3086C186.79 20.4128 187.009 20.4648 187.262 20.4648C187.582 20.4648 187.837 20.4141 188.027 20.3125C188.217 20.2109 188.361 20.0651 188.457 19.875C188.556 19.6849 188.626 19.457 188.668 19.1914ZM190.145 18.9336V18.8438C190.145 18.5391 190.189 18.2565 190.277 17.9961C190.366 17.7331 190.493 17.5052 190.66 17.3125C190.827 17.1172 191.029 16.9661 191.266 16.8594C191.503 16.75 191.768 16.6953 192.062 16.6953C192.359 16.6953 192.626 16.75 192.863 16.8594C193.103 16.9661 193.306 17.1172 193.473 17.3125C193.642 17.5052 193.771 17.7331 193.859 17.9961C193.948 18.2565 193.992 18.5391 193.992 18.8438V18.9336C193.992 19.2383 193.948 19.5208 193.859 19.7812C193.771 20.0417 193.642 20.2695 193.473 20.4648C193.306 20.6576 193.104 20.8086 192.867 20.918C192.633 21.0247 192.367 21.0781 192.07 21.0781C191.773 21.0781 191.507 21.0247 191.27 20.918C191.033 20.8086 190.829 20.6576 190.66 20.4648C190.493 20.2695 190.366 20.0417 190.277 19.7812C190.189 19.5208 190.145 19.2383 190.145 18.9336ZM190.867 18.8438V18.9336C190.867 19.1445 190.892 19.3438 190.941 19.5312C190.991 19.7161 191.065 19.8802 191.164 20.0234C191.266 20.1667 191.392 20.2799 191.543 20.3633C191.694 20.444 191.87 20.4844 192.07 20.4844C192.268 20.4844 192.441 20.444 192.59 20.3633C192.741 20.2799 192.866 20.1667 192.965 20.0234C193.064 19.8802 193.138 19.7161 193.188 19.5312C193.24 19.3438 193.266 19.1445 193.266 18.9336V18.8438C193.266 18.6354 193.24 18.4388 193.188 18.2539C193.138 18.0664 193.062 17.901 192.961 17.7578C192.862 17.612 192.737 17.4974 192.586 17.4141C192.438 17.3307 192.263 17.2891 192.062 17.2891C191.865 17.2891 191.69 17.3307 191.539 17.4141C191.391 17.4974 191.266 17.612 191.164 17.7578C191.065 17.901 190.991 18.0664 190.941 18.2539C190.892 18.4388 190.867 18.6354 190.867 18.8438ZM191.633 16.1484L192.391 15H193.262L192.215 16.1484H191.633ZM197.562 20.1797V15H198.289V21H197.625L197.562 20.1797ZM194.719 18.9336V18.8516C194.719 18.5286 194.758 18.2357 194.836 17.9727C194.917 17.707 195.03 17.4792 195.176 17.2891C195.324 17.099 195.5 16.9531 195.703 16.8516C195.909 16.7474 196.138 16.6953 196.391 16.6953C196.656 16.6953 196.888 16.7422 197.086 16.8359C197.286 16.9271 197.456 17.0612 197.594 17.2383C197.734 17.4128 197.845 17.6237 197.926 17.8711C198.007 18.1185 198.062 18.3984 198.094 18.7109V19.0703C198.065 19.3802 198.009 19.6589 197.926 19.9062C197.845 20.1536 197.734 20.3646 197.594 20.5391C197.456 20.7135 197.286 20.8477 197.086 20.9414C196.885 21.0326 196.651 21.0781 196.383 21.0781C196.135 21.0781 195.909 21.0247 195.703 20.918C195.5 20.8112 195.324 20.6615 195.176 20.4688C195.03 20.276 194.917 20.0495 194.836 19.7891C194.758 19.526 194.719 19.2409 194.719 18.9336ZM195.445 18.8516V18.9336C195.445 19.1445 195.466 19.3424 195.508 19.5273C195.552 19.7122 195.62 19.875 195.711 20.0156C195.802 20.1562 195.918 20.2669 196.059 20.3477C196.199 20.4258 196.367 20.4648 196.562 20.4648C196.802 20.4648 196.999 20.4141 197.152 20.3125C197.309 20.2109 197.434 20.0768 197.527 19.9102C197.621 19.7435 197.694 19.5625 197.746 19.3672V18.4258C197.715 18.2826 197.669 18.1445 197.609 18.0117C197.552 17.8763 197.477 17.7565 197.383 17.6523C197.292 17.5456 197.178 17.4609 197.043 17.3984C196.91 17.3359 196.753 17.3047 196.57 17.3047C196.372 17.3047 196.202 17.3464 196.059 17.4297C195.918 17.5104 195.802 17.6224 195.711 17.7656C195.62 17.9062 195.552 18.0703 195.508 18.2578C195.466 18.4427 195.445 18.6406 195.445 18.8516ZM200.199 16.7734V21H199.473V16.7734H200.199ZM199.418 15.6523C199.418 15.5352 199.453 15.4362 199.523 15.3555C199.596 15.2747 199.703 15.2344 199.844 15.2344C199.982 15.2344 200.087 15.2747 200.16 15.3555C200.236 15.4362 200.273 15.5352 200.273 15.6523C200.273 15.7643 200.236 15.8607 200.16 15.9414C200.087 16.0195 199.982 16.0586 199.844 16.0586C199.703 16.0586 199.596 16.0195 199.523 15.9414C199.453 15.8607 199.418 15.7643 199.418 15.6523ZM204.098 16.7734H204.754V20.9102C204.754 21.2826 204.678 21.6003 204.527 21.8633C204.376 22.1263 204.165 22.3255 203.895 22.4609C203.626 22.599 203.316 22.668 202.965 22.668C202.819 22.668 202.647 22.6445 202.449 22.5977C202.254 22.5534 202.061 22.4766 201.871 22.3672C201.684 22.2604 201.526 22.1159 201.398 21.9336L201.777 21.5039C201.954 21.7174 202.139 21.8659 202.332 21.9492C202.527 22.0326 202.72 22.0742 202.91 22.0742C203.139 22.0742 203.337 22.0312 203.504 21.9453C203.671 21.8594 203.799 21.7318 203.891 21.5625C203.984 21.3958 204.031 21.1901 204.031 20.9453V17.7031L204.098 16.7734ZM201.188 18.9336V18.8516C201.188 18.5286 201.225 18.2357 201.301 17.9727C201.379 17.707 201.49 17.4792 201.633 17.2891C201.779 17.099 201.954 16.9531 202.16 16.8516C202.366 16.7474 202.598 16.6953 202.855 16.6953C203.121 16.6953 203.353 16.7422 203.551 16.8359C203.751 16.9271 203.921 17.0612 204.059 17.2383C204.199 17.4128 204.31 17.6237 204.391 17.8711C204.471 18.1185 204.527 18.3984 204.559 18.7109V19.0703C204.53 19.3802 204.474 19.6589 204.391 19.9062C204.31 20.1536 204.199 20.3646 204.059 20.5391C203.921 20.7135 203.751 20.8477 203.551 20.9414C203.35 21.0326 203.116 21.0781 202.848 21.0781C202.595 21.0781 202.366 21.0247 202.16 20.918C201.957 20.8112 201.783 20.6615 201.637 20.4688C201.491 20.276 201.379 20.0495 201.301 19.7891C201.225 19.526 201.188 19.2409 201.188 18.9336ZM201.91 18.8516V18.9336C201.91 19.1445 201.931 19.3424 201.973 19.5273C202.017 19.7122 202.083 19.875 202.172 20.0156C202.263 20.1562 202.379 20.2669 202.52 20.3477C202.66 20.4258 202.828 20.4648 203.023 20.4648C203.263 20.4648 203.461 20.4141 203.617 20.3125C203.773 20.2109 203.897 20.0768 203.988 19.9102C204.082 19.7435 204.155 19.5625 204.207 19.3672V18.4258C204.178 18.2826 204.134 18.1445 204.074 18.0117C204.017 17.8763 203.941 17.7565 203.848 17.6523C203.757 17.5456 203.643 17.4609 203.508 17.3984C203.372 17.3359 203.214 17.3047 203.031 17.3047C202.833 17.3047 202.663 17.3464 202.52 17.4297C202.379 17.5104 202.263 17.6224 202.172 17.7656C202.083 17.9062 202.017 18.0703 201.973 18.2578C201.931 18.4427 201.91 18.6406 201.91 18.8516ZM205.66 18.9336V18.8438C205.66 18.5391 205.704 18.2565 205.793 17.9961C205.882 17.7331 206.009 17.5052 206.176 17.3125C206.342 17.1172 206.544 16.9661 206.781 16.8594C207.018 16.75 207.284 16.6953 207.578 16.6953C207.875 16.6953 208.142 16.75 208.379 16.8594C208.618 16.9661 208.822 17.1172 208.988 17.3125C209.158 17.5052 209.286 17.7331 209.375 17.9961C209.464 18.2565 209.508 18.5391 209.508 18.8438V18.9336C209.508 19.2383 209.464 19.5208 209.375 19.7812C209.286 20.0417 209.158 20.2695 208.988 20.4648C208.822 20.6576 208.62 20.8086 208.383 20.918C208.148 21.0247 207.883 21.0781 207.586 21.0781C207.289 21.0781 207.022 21.0247 206.785 20.918C206.548 20.8086 206.345 20.6576 206.176 20.4648C206.009 20.2695 205.882 20.0417 205.793 19.7812C205.704 19.5208 205.66 19.2383 205.66 18.9336ZM206.383 18.8438V18.9336C206.383 19.1445 206.408 19.3438 206.457 19.5312C206.507 19.7161 206.581 19.8802 206.68 20.0234C206.781 20.1667 206.908 20.2799 207.059 20.3633C207.21 20.444 207.385 20.4844 207.586 20.4844C207.784 20.4844 207.957 20.444 208.105 20.3633C208.257 20.2799 208.382 20.1667 208.48 20.0234C208.579 19.8802 208.654 19.7161 208.703 19.5312C208.755 19.3438 208.781 19.1445 208.781 18.9336V18.8438C208.781 18.6354 208.755 18.4388 208.703 18.2539C208.654 18.0664 208.578 17.901 208.477 17.7578C208.378 17.612 208.253 17.4974 208.102 17.4141C207.953 17.3307 207.779 17.2891 207.578 17.2891C207.38 17.2891 207.206 17.3307 207.055 17.4141C206.906 17.4974 206.781 17.612 206.68 17.7578C206.581 17.901 206.507 18.0664 206.457 18.2539C206.408 18.4388 206.383 18.6354 206.383 18.8438ZM215.062 20.1797V15H215.789V21H215.125L215.062 20.1797ZM212.219 18.9336V18.8516C212.219 18.5286 212.258 18.2357 212.336 17.9727C212.417 17.707 212.53 17.4792 212.676 17.2891C212.824 17.099 213 16.9531 213.203 16.8516C213.409 16.7474 213.638 16.6953 213.891 16.6953C214.156 16.6953 214.388 16.7422 214.586 16.8359C214.786 16.9271 214.956 17.0612 215.094 17.2383C215.234 17.4128 215.345 17.6237 215.426 17.8711C215.507 18.1185 215.562 18.3984 215.594 18.7109V19.0703C215.565 19.3802 215.509 19.6589 215.426 19.9062C215.345 20.1536 215.234 20.3646 215.094 20.5391C214.956 20.7135 214.786 20.8477 214.586 20.9414C214.385 21.0326 214.151 21.0781 213.883 21.0781C213.635 21.0781 213.409 21.0247 213.203 20.918C213 20.8112 212.824 20.6615 212.676 20.4688C212.53 20.276 212.417 20.0495 212.336 19.7891C212.258 19.526 212.219 19.2409 212.219 18.9336ZM212.945 18.8516V18.9336C212.945 19.1445 212.966 19.3424 213.008 19.5273C213.052 19.7122 213.12 19.875 213.211 20.0156C213.302 20.1562 213.418 20.2669 213.559 20.3477C213.699 20.4258 213.867 20.4648 214.062 20.4648C214.302 20.4648 214.499 20.4141 214.652 20.3125C214.809 20.2109 214.934 20.0768 215.027 19.9102C215.121 19.7435 215.194 19.5625 215.246 19.3672V18.4258C215.215 18.2826 215.169 18.1445 215.109 18.0117C215.052 17.8763 214.977 17.7565 214.883 17.6523C214.792 17.5456 214.678 17.4609 214.543 17.3984C214.41 17.3359 214.253 17.3047 214.07 17.3047C213.872 17.3047 213.702 17.3464 213.559 17.4297C213.418 17.5104 213.302 17.6224 213.211 17.7656C213.12 17.9062 213.052 18.0703 213.008 18.2578C212.966 18.4427 212.945 18.6406 212.945 18.8516ZM218.668 21.0781C218.374 21.0781 218.107 21.0286 217.867 20.9297C217.63 20.8281 217.426 20.6862 217.254 20.5039C217.085 20.3216 216.954 20.1055 216.863 19.8555C216.772 19.6055 216.727 19.332 216.727 19.0352V18.8711C216.727 18.5273 216.777 18.2214 216.879 17.9531C216.98 17.6823 217.118 17.4531 217.293 17.2656C217.467 17.0781 217.665 16.9362 217.887 16.8398C218.108 16.7435 218.337 16.6953 218.574 16.6953C218.876 16.6953 219.137 16.7474 219.355 16.8516C219.577 16.9557 219.758 17.1016 219.898 17.2891C220.039 17.474 220.143 17.6927 220.211 17.9453C220.279 18.1953 220.312 18.4688 220.312 18.7656V19.0898H217.156V18.5H219.59V18.4453C219.579 18.2578 219.54 18.0755 219.473 17.8984C219.408 17.7214 219.303 17.5755 219.16 17.4609C219.017 17.3464 218.822 17.2891 218.574 17.2891C218.41 17.2891 218.259 17.3242 218.121 17.3945C217.983 17.4622 217.865 17.5638 217.766 17.6992C217.667 17.8346 217.59 18 217.535 18.1953C217.48 18.3906 217.453 18.6159 217.453 18.8711V19.0352C217.453 19.2357 217.48 19.4245 217.535 19.6016C217.592 19.776 217.674 19.9297 217.781 20.0625C217.891 20.1953 218.022 20.2995 218.176 20.375C218.332 20.4505 218.509 20.4883 218.707 20.4883C218.962 20.4883 219.178 20.4362 219.355 20.332C219.533 20.2279 219.688 20.0885 219.82 19.9141L220.258 20.2617C220.167 20.3997 220.051 20.5312 219.91 20.6562C219.77 20.7812 219.596 20.8828 219.391 20.9609C219.188 21.0391 218.947 21.0781 218.668 21.0781ZM225.277 18.3398H223.836L223.828 17.7344H225.137C225.353 17.7344 225.542 17.6979 225.703 17.625C225.865 17.5521 225.99 17.4479 226.078 17.3125C226.169 17.1745 226.215 17.0104 226.215 16.8203C226.215 16.612 226.174 16.4427 226.094 16.3125C226.016 16.1797 225.895 16.0833 225.73 16.0234C225.569 15.9609 225.363 15.9297 225.113 15.9297H224.004V21H223.25V15.3125H225.113C225.405 15.3125 225.665 15.3424 225.895 15.4023C226.124 15.4596 226.318 15.5508 226.477 15.6758C226.638 15.7982 226.76 15.9544 226.844 16.1445C226.927 16.3346 226.969 16.5625 226.969 16.8281C226.969 17.0625 226.909 17.2747 226.789 17.4648C226.669 17.6523 226.503 17.806 226.289 17.9258C226.078 18.0456 225.831 18.1224 225.547 18.1562L225.277 18.3398ZM225.242 21H223.539L223.965 20.3867H225.242C225.482 20.3867 225.685 20.3451 225.852 20.2617C226.021 20.1784 226.15 20.0612 226.238 19.9102C226.327 19.7565 226.371 19.5755 226.371 19.3672C226.371 19.1562 226.333 18.974 226.258 18.8203C226.182 18.6667 226.064 18.5482 225.902 18.4648C225.741 18.3815 225.533 18.3398 225.277 18.3398H224.203L224.211 17.7344H225.68L225.84 17.9531C226.113 17.9766 226.345 18.0547 226.535 18.1875C226.725 18.3177 226.87 18.4844 226.969 18.6875C227.07 18.8906 227.121 19.1146 227.121 19.3594C227.121 19.7135 227.043 20.013 226.887 20.2578C226.733 20.5 226.516 20.6849 226.234 20.8125C225.953 20.9375 225.622 21 225.242 21ZM230.617 20.2773V18.1016C230.617 17.9349 230.583 17.7904 230.516 17.668C230.451 17.543 230.352 17.4466 230.219 17.3789C230.086 17.3112 229.922 17.2773 229.727 17.2773C229.544 17.2773 229.384 17.3086 229.246 17.3711C229.111 17.4336 229.004 17.5156 228.926 17.6172C228.85 17.7188 228.812 17.8281 228.812 17.9453H228.09C228.09 17.7943 228.129 17.6445 228.207 17.4961C228.285 17.3477 228.397 17.2135 228.543 17.0938C228.691 16.9714 228.868 16.875 229.074 16.8047C229.283 16.7318 229.514 16.6953 229.77 16.6953C230.077 16.6953 230.348 16.7474 230.582 16.8516C230.819 16.9557 231.004 17.1133 231.137 17.3242C231.272 17.5326 231.34 17.7943 231.34 18.1094V20.0781C231.34 20.2188 231.352 20.3685 231.375 20.5273C231.401 20.6862 231.439 20.8229 231.488 20.9375V21H230.734C230.698 20.9167 230.669 20.806 230.648 20.668C230.628 20.5273 230.617 20.3971 230.617 20.2773ZM230.742 18.4375L230.75 18.9453H230.02C229.814 18.9453 229.63 18.9622 229.469 18.9961C229.307 19.0273 229.172 19.0755 229.062 19.1406C228.953 19.2057 228.87 19.2878 228.812 19.3867C228.755 19.4831 228.727 19.5964 228.727 19.7266C228.727 19.8594 228.757 19.9805 228.816 20.0898C228.876 20.1992 228.966 20.2865 229.086 20.3516C229.208 20.4141 229.358 20.4453 229.535 20.4453C229.757 20.4453 229.952 20.3984 230.121 20.3047C230.29 20.2109 230.424 20.0964 230.523 19.9609C230.625 19.8255 230.68 19.694 230.688 19.5664L230.996 19.9141C230.978 20.0234 230.928 20.1445 230.848 20.2773C230.767 20.4102 230.659 20.5378 230.523 20.6602C230.391 20.7799 230.232 20.8802 230.047 20.9609C229.865 21.0391 229.659 21.0781 229.43 21.0781C229.143 21.0781 228.892 21.0221 228.676 20.9102C228.462 20.7982 228.296 20.6484 228.176 20.4609C228.059 20.2708 228 20.0586 228 19.8242C228 19.5977 228.044 19.3984 228.133 19.2266C228.221 19.0521 228.349 18.9076 228.516 18.793C228.682 18.6758 228.883 18.5872 229.117 18.5273C229.352 18.4674 229.613 18.4375 229.902 18.4375H230.742ZM233.199 17.4375V21H232.477V16.7734H233.18L233.199 17.4375ZM234.52 16.75L234.516 17.4219C234.456 17.4089 234.398 17.401 234.344 17.3984C234.292 17.3932 234.232 17.3906 234.164 17.3906C233.997 17.3906 233.85 17.4167 233.723 17.4688C233.595 17.5208 233.487 17.5938 233.398 17.6875C233.31 17.7812 233.24 17.8932 233.188 18.0234C233.138 18.151 233.105 18.2917 233.09 18.4453L232.887 18.5625C232.887 18.3073 232.911 18.0677 232.961 17.8438C233.013 17.6198 233.092 17.4219 233.199 17.25C233.306 17.0755 233.441 16.9401 233.605 16.8438C233.772 16.7448 233.97 16.6953 234.199 16.6953C234.251 16.6953 234.311 16.7018 234.379 16.7148C234.447 16.7253 234.493 16.737 234.52 16.75ZM235.91 17.4375V21H235.188V16.7734H235.891L235.91 17.4375ZM237.23 16.75L237.227 17.4219C237.167 17.4089 237.109 17.401 237.055 17.3984C237.003 17.3932 236.943 17.3906 236.875 17.3906C236.708 17.3906 236.561 17.4167 236.434 17.4688C236.306 17.5208 236.198 17.5938 236.109 17.6875C236.021 17.7812 235.951 17.8932 235.898 18.0234C235.849 18.151 235.816 18.2917 235.801 18.4453L235.598 18.5625C235.598 18.3073 235.622 18.0677 235.672 17.8438C235.724 17.6198 235.803 17.4219 235.91 17.25C236.017 17.0755 236.152 16.9401 236.316 16.8438C236.483 16.7448 236.681 16.6953 236.91 16.6953C236.962 16.6953 237.022 16.7018 237.09 16.7148C237.158 16.7253 237.204 16.737 237.23 16.75ZM240.234 20.2773V18.1016C240.234 17.9349 240.201 17.7904 240.133 17.668C240.068 17.543 239.969 17.4466 239.836 17.3789C239.703 17.3112 239.539 17.2773 239.344 17.2773C239.161 17.2773 239.001 17.3086 238.863 17.3711C238.728 17.4336 238.621 17.5156 238.543 17.6172C238.467 17.7188 238.43 17.8281 238.43 17.9453H237.707C237.707 17.7943 237.746 17.6445 237.824 17.4961C237.902 17.3477 238.014 17.2135 238.16 17.0938C238.309 16.9714 238.486 16.875 238.691 16.8047C238.9 16.7318 239.132 16.6953 239.387 16.6953C239.694 16.6953 239.965 16.7474 240.199 16.8516C240.436 16.9557 240.621 17.1133 240.754 17.3242C240.889 17.5326 240.957 17.7943 240.957 18.1094V20.0781C240.957 20.2188 240.969 20.3685 240.992 20.5273C241.018 20.6862 241.056 20.8229 241.105 20.9375V21H240.352C240.315 20.9167 240.286 20.806 240.266 20.668C240.245 20.5273 240.234 20.3971 240.234 20.2773ZM240.359 18.4375L240.367 18.9453H239.637C239.431 18.9453 239.247 18.9622 239.086 18.9961C238.924 19.0273 238.789 19.0755 238.68 19.1406C238.57 19.2057 238.487 19.2878 238.43 19.3867C238.372 19.4831 238.344 19.5964 238.344 19.7266C238.344 19.8594 238.374 19.9805 238.434 20.0898C238.493 20.1992 238.583 20.2865 238.703 20.3516C238.826 20.4141 238.975 20.4453 239.152 20.4453C239.374 20.4453 239.569 20.3984 239.738 20.3047C239.908 20.2109 240.042 20.0964 240.141 19.9609C240.242 19.8255 240.297 19.694 240.305 19.5664L240.613 19.9141C240.595 20.0234 240.546 20.1445 240.465 20.2773C240.384 20.4102 240.276 20.5378 240.141 20.6602C240.008 20.7799 239.849 20.8802 239.664 20.9609C239.482 21.0391 239.276 21.0781 239.047 21.0781C238.76 21.0781 238.509 21.0221 238.293 20.9102C238.079 20.7982 237.913 20.6484 237.793 20.4609C237.676 20.2708 237.617 20.0586 237.617 19.8242C237.617 19.5977 237.661 19.3984 237.75 19.2266C237.839 19.0521 237.966 18.9076 238.133 18.793C238.299 18.6758 238.5 18.5872 238.734 18.5273C238.969 18.4674 239.23 18.4375 239.52 18.4375H240.359ZM244.555 19.8789C244.555 19.7747 244.531 19.6784 244.484 19.5898C244.44 19.4987 244.348 19.4167 244.207 19.3438C244.069 19.2682 243.861 19.2031 243.582 19.1484C243.348 19.099 243.135 19.0404 242.945 18.9727C242.758 18.9049 242.598 18.8229 242.465 18.7266C242.335 18.6302 242.234 18.5169 242.164 18.3867C242.094 18.2565 242.059 18.1042 242.059 17.9297C242.059 17.763 242.095 17.6055 242.168 17.457C242.243 17.3086 242.349 17.1771 242.484 17.0625C242.622 16.9479 242.788 16.8581 242.98 16.793C243.173 16.7279 243.388 16.6953 243.625 16.6953C243.964 16.6953 244.253 16.7552 244.492 16.875C244.732 16.9948 244.915 17.1549 245.043 17.3555C245.171 17.5534 245.234 17.7734 245.234 18.0156H244.512C244.512 17.8984 244.477 17.7852 244.406 17.6758C244.339 17.5638 244.238 17.4714 244.105 17.3984C243.975 17.3255 243.815 17.2891 243.625 17.2891C243.424 17.2891 243.262 17.3203 243.137 17.3828C243.014 17.4427 242.924 17.5195 242.867 17.6133C242.812 17.707 242.785 17.806 242.785 17.9102C242.785 17.9883 242.798 18.0586 242.824 18.1211C242.853 18.181 242.902 18.237 242.973 18.2891C243.043 18.3385 243.142 18.3854 243.27 18.4297C243.397 18.474 243.56 18.5182 243.758 18.5625C244.104 18.6406 244.389 18.7344 244.613 18.8438C244.837 18.9531 245.004 19.0872 245.113 19.2461C245.223 19.4049 245.277 19.5977 245.277 19.8242C245.277 20.0091 245.238 20.1784 245.16 20.332C245.085 20.4857 244.974 20.6185 244.828 20.7305C244.685 20.8398 244.513 20.9258 244.312 20.9883C244.115 21.0482 243.892 21.0781 243.645 21.0781C243.272 21.0781 242.957 21.0117 242.699 20.8789C242.441 20.7461 242.246 20.5742 242.113 20.3633C241.98 20.1523 241.914 19.9297 241.914 19.6953H242.641C242.651 19.8932 242.708 20.0508 242.812 20.168C242.917 20.2826 243.044 20.3646 243.195 20.4141C243.346 20.4609 243.496 20.4844 243.645 20.4844C243.842 20.4844 244.008 20.4583 244.141 20.4062C244.276 20.3542 244.379 20.2826 244.449 20.1914C244.52 20.1003 244.555 19.9961 244.555 19.8789Z" fill="black"/>
</svg>
