<?xml version="1.0" standalone="no"?>
<!DOCTYPE svg PUBLIC "-//W3C//DTD SVG 20010904//EN"
 "http://www.w3.org/TR/2001/REC-SVG-20010904/DTD/svg10.dtd">
<svg version="1.0" xmlns="http://www.w3.org/2000/svg"
 width="150.000000pt" height="150.000000pt" viewBox="0 0 150.000000 150.000000"
 preserveAspectRatio="xMidYMid meet">
<metadata>
Created by potrace 1.14, written by Peter Selinger 2001-2017
</metadata>
<g transform="translate(0.000000,150.000000) scale(0.100000,-0.100000)"
fill="#000000" stroke="none">
<path d="M610 1466 c-36 -8 -84 -21 -106 -29 -60 -22 -164 -78 -164 -88 0 -5
-6 -9 -13 -9 -23 0 -187 -173 -187 -197 0 -6 -4 -13 -8 -15 -15 -5 -69 -129
-88 -198 -23 -86 -27 -246 -8 -334 18 -87 60 -186 109 -261 43 -64 162 -185
182 -185 7 0 13 -4 13 -10 0 -5 5 -10 11 -10 6 0 17 -6 24 -14 24 -23 160 -75
241 -92 74 -15 189 -15 287 0 49 8 183 60 222 86 17 11 39 25 49 32 49 33 140
119 166 158 8 12 20 28 25 34 20 21 83 161 101 221 25 83 25 285 1 375 -20 74
-91 222 -119 246 -10 10 -18 21 -18 26 0 11 -82 91 -129 126 -20 15 -38 29
-41 32 -17 18 -137 72 -199 90 -94 28 -260 35 -351 16z"/>
</g>
</svg>
