<svg width="44" height="45" viewBox="0 0 44 45" fill="none" xmlns="http://www.w3.org/2000/svg">
<rect y="0.501709" width="44" height="43.9965" rx="21.9982" fill="#ED1C24"/>
<path d="M28 18.5017C28 16.9104 27.3679 15.3843 26.2426 14.2591C25.1174 13.1338 23.5913 12.5017 22 12.5017C20.4087 12.5017 18.8826 13.1338 17.7574 14.2591C16.6321 15.3843 16 16.9104 16 18.5017C16 25.5017 13 27.5017 13 27.5017H31C31 27.5017 28 25.5017 28 18.5017Z" stroke="white" stroke-width="2" stroke-linecap="round" stroke-linejoin="round"/>
<path d="M23.73 31.5017C23.5542 31.8048 23.3018 32.0564 22.9982 32.2312C22.6946 32.4061 22.3504 32.4982 22 32.4982C21.6496 32.4982 21.3054 32.4061 21.0018 32.2312C20.6981 32.0564 20.4458 31.8048 20.27 31.5017" stroke="white" stroke-width="2" stroke-linecap="round" stroke-linejoin="round"/>
</svg>
