<svg width="11" height="11" viewBox="0 0 11 11" fill="none" xmlns="http://www.w3.org/2000/svg">
<path d="M1.46444 6.91524L1.07035 6.60751H1.07035L1.46444 6.91524ZM4.9199 9.61348L4.52581 9.30575L4.9199 9.61348ZM9.23709 4.08475L9.63117 4.39248L9.23709 4.08475ZM5.78163 1.3865L6.17572 1.69423L5.78163 1.3865ZM4.96614 5.42429C5.18378 5.59424 5.498 5.55558 5.66795 5.33793C5.8379 5.12029 5.79924 4.80607 5.58159 4.63612L4.96614 5.42429ZM8.843 3.77702L4.52581 9.30575L5.31398 9.92121L9.63117 4.39248L8.843 3.77702ZM1.85853 7.22296L6.17572 1.69423L5.38755 1.07878L1.07035 6.60751L1.85853 7.22296ZM2.15077 9.598C1.41422 9.02285 1.28338 7.95951 1.85853 7.22296L1.07035 6.60751C0.155302 7.77935 0.363474 9.47112 1.53532 10.3862L2.15077 9.598ZM4.52581 9.30575C3.95067 10.0423 2.88733 10.1731 2.15077 9.598L1.53532 10.3862C2.70716 11.3012 4.39893 11.0931 5.31398 9.92121L4.52581 9.30575ZM8.55075 1.40198C9.2873 1.97713 9.41815 3.04047 8.843 3.77702L9.63117 4.39248C10.5462 3.22063 10.3381 1.52886 9.16621 0.613812L8.55075 1.40198ZM9.16621 0.613812C7.99436 -0.301241 6.3026 -0.09307 5.38755 1.07878L6.17572 1.69423C6.75086 0.957681 7.8142 0.826837 8.55075 1.40198L9.16621 0.613812ZM3.58395 4.34499L4.96614 5.42429L5.58159 4.63612L4.19941 3.55682L3.58395 4.34499Z" fill="black"/>
</svg>
